# xmcd CD database file
#
# Track frame offsets:
#	150
#	19482
#	31497
#	47782
#	62802
#	85350
#	100617
#	119550
#	134830
#	158627
#	171497
#	200017
#	217247
#	234395
#	252540
#
# Disc length: 3736 seconds
#
# Revision: 2
# Processed by: cddbd v1.5.2PL0 Copyright (c) Steve Scherf et al.
# Submitted via: CD2WAV32(JP) R3.22
#
DISCID=e90e960f
DTITLE=山口百恵 - 山口百恵ベスト・コレクションⅡ～いい日旅立ち～
DYEAR=1995
DGENRE=Pop
TTITLE0=いい日旅立ち
TTITLE1=ひと夏の経験
TTITLE2=少年の海
TTITLE3=ささやかな欲望
TTITLE4=歌い継がれてゆく歌のように
TTITLE5=イミテーション・ゴールド
TTITLE6=赤い絆
TTITLE7=プレイバックpart2
TTITLE8=Crazy Love
TTITLE9=絶体絶命
TTITLE10=ラスト・ソング
TTITLE11=美・サイレント
TTITLE12=愛染橋
TTITLE13=ロックンロール・ウィドウ
TTITLE14=一恵
EXTD=
EXTT0=
EXTT1=
EXTT2=
EXTT3=
EXTT4=
EXTT5=
EXTT6=
EXTT7=
EXTT8=
EXTT9=
EXTT10=
EXTT11=
EXTT12=
EXTT13=
EXTT14=
PLAYORDER=
